PathFileType	4	(X/Y/Z)	/Users/itak/Documents/Research/Walk-IL/dataset/trc/00216_00009.trc
DataRate	CameraRate	NumFrames	NumMarkers	Units	OrigDataRate	OrigDataStartFrame	OrigNumFrames
100.000000	100.000000	4	53	mm	100.000000	64	517
Frame#	Time	RPSI			LPSI			L3			STRN			T10			C7			CLAV			RBAK			LBAK			LSHO			LUPA			LAEL			LAOL			LWTS			LWPS			LFRA			LIFD			LHPS			LHTS			RSHO			RUPA			RAEL			RAOL			RWPS			RFRA			RIFD			RHTS			RHPS			RBHD			LFHD			RFHD			LBHD			LHIP			RHIP			RASI			LASI			LKNE			LTHI			LANK			LTIP			LTOE			LMT1			LMT5			LHEE			RKNE			RTHI			RANK			RTIP			RTOE			RMT1			RMT5			RHEE			RWTS			
		X1	Y1	Z1	X2	Y2	Z2	X3	Y3	Z3	X4	Y4	Z4	X5	Y5	Z5	X6	Y6	Z6	X7	Y7	Z7	X8	Y8	Z8	X9	Y9	Z9	X10	Y10	Z10	X11	Y11	Z11	X12	Y12	Z12	X13	Y13	Z13	X14	Y14	Z14	X15	Y15	Z15	X16	Y16	Z16	X17	Y17	Z17	X18	Y18	Z18	X19	Y19	Z19	X20	Y20	Z20	X21	Y21	Z21	X22	Y22	Z22	X23	Y23	Z23	X24	Y24	Z24	X25	Y25	Z25	X26	Y26	Z26	X27	Y27	Z27	X28	Y28	Z28	X29	Y29	Z29	X30	Y30	Z30	X31	Y31	Z31	X32	Y32	Z32	X33	Y33	Z33	X34	Y34	Z34	X35	Y35	Z35	X36	Y36	Z36	X37	Y37	Z37	X38	Y38	Z38	X39	Y39	Z39	X40	Y40	Z40	X41	Y41	Z41	X42	Y42	Z42	X43	Y43	Z43	X44	Y44	Z44	X45	Y45	Z45	X46	Y46	Z46	X47	Y47	Z47	X48	Y48	Z48	X49	Y49	Z49	X50	Y50	Z50	X51	Y51	Z51	X52	Y52	Z52	X53	Y53	Z53	

65	0.64	-1623.566650390625	1053.580444335938	-131.0586242675781	-1613.654296875	1059.865600585938	-250.9985809326172	-1623.828491210938	1130.8544921875	-208.0402374267578	-1387.80029296875	1324.835205078125	-200.4066314697266	-1640.947387695312	1257.471557617188	-200.3108673095703	-1585.913696289062	1521.134399414062	-202.2495880126953	-1416.917846679688	1441.65185546875	-199.8707733154297	-1657.633666992188	1380.984008789062	-128.3224945068359	-1603.907348632812	1483.437622070312	-313.8015441894531	-1513.5234375	1485.759643554688	-367.517578125	-1536.465454101562	1367.487548828125	-447.8189086914062	-1508.849243164062	1157.149536132812	-473.8707275390625	-1581.8466796875	1137.531005859375	-430.390380859375	-1408.94482421875	926.8353271484375	-412.9689025878906	-1431.22119140625	909.3367919921875	-492.8769836425781	-1480.496704101562	1051.183227539062	-486.0521240234375	-1400.271118164062	729.146728515625	-423.5586242675781	-1411.034912109375	821.3347778320312	-488.1587524414062	-1370.57568359375	826.8201293945312	-433.5205383300781	-1524.777465820312	1481.1884765625	-32.47750854492188	-1540.54736328125	1416.998413085938	36.24250411987305	-1548.636352539062	1133.745971679688	72.73490905761719	-1589.557250976562	1127.876708984375	-13.2319278717041	-1459.85400390625	904.8086547851562	84.42331695556641	-1518.951538085938	1065.403076171875	81.42713928222656	-1396.72802734375	726.490234375	7.251077651977539	-1370.514282226562	799.3557739257812	26.19589614868164	-1418.812622070312	797.9312133789062	80.26435852050781	-1545.759643554688	1660.817504882812	-125.6697769165039	-1386.316650390625	1746.027221679688	-264.5298767089844	-1360.0478515625	1741.8447265625	-168.2410888671875	-1538.161865234375	1680.921020507812	-264.6368103027344	-1506.54736328125	995.4570922851562	-384.3964233398438	-1533.682739257812	1012.0927734375	-17.98849678039551	-1434.380981445312	1054.3779296875	-50.19565200805664	-1406.318725585938	1035.858764648438	-332.1614990234375	-1492.407836914062	509.539794921875	-345.4701538085938	-1486.759033203125	653.9828491210938	-375.5701904296875	-1581.843383789062	41.57258605957031	-341.9107666015625	-1546.08740234375	289.5662231445312	-355.0020751953125	-1368.20947265625	46.74992752075195	-284.1168823242188	-1437.138916015625	40.88474273681641	-241.8305816650391	-1453.5673828125	41.29635620117188	-357.3074035644531	-1644.118896484375	46.60546875	-290.2680969238281	-1510.375732421875	518.20654296875	-64.51046752929688	-1479.4736328125	784.8203125	-11.80789470672607	-1583.285400390625	39.08970260620117	-104.5299530029297	-1507.392700195312	403.3649597167969	-85.03706359863281	-1369.865356445312	49.03246688842773	-137.2015380859375	-1422.467895507812	45.71699905395508	-182.1481323242188	-1473.697875976562	39.31313705444336	-72.79319763183594	-1641.644409179688	40.13959503173828	-166.2135620117188	-1413.134765625	920.9208984375	15.70360469818115	
66	0.65	-1623.628173828125	1053.59228515625	-130.9567108154297	-1613.620849609375	1059.8681640625	-250.9034423828125	-1623.8017578125	1130.871215820312	-207.9669342041016	-1387.854736328125	1324.813598632812	-200.2241668701172	-1640.906494140625	1257.496948242188	-200.2778472900391	-1585.802978515625	1521.149169921875	-202.2709655761719	-1416.788330078125	1441.625366210938	-199.7379760742188	-1657.551879882812	1381.049072265625	-128.3485107421875	-1603.679565429688	1483.423217773438	-313.7909240722656	-1513.273315429688	1485.71630859375	-367.437744140625	-1536.192749023438	1367.430297851562	-447.7395935058594	-1508.58984375	1157.088623046875	-473.7365417480469	-1581.635009765625	1137.508911132812	-430.3040466308594	-1408.81982421875	926.69775390625	-412.7772216796875	-1431.083374023438	909.2216186523438	-492.7239074707031	-1480.297607421875	1051.120727539062	-485.9203491210938	-1400.067993164062	728.9813232421875	-423.3566284179688	-1410.982299804688	821.2328491210938	-488.0234985351562	-1370.487426757812	826.6567993164062	-433.3612670898438	-1524.775146484375	1481.218994140625	-32.42537689208984	-1540.631958007812	1417.05859375	36.3284912109375	-1548.835571289062	1133.80712890625	72.78901672363281	-1589.698364257812	1127.966064453125	-13.15336036682129	-1460.011962890625	904.8756713867188	84.55554962158203	-1519.092651367188	1065.445922851562	81.52120208740234	-1396.801513671875	726.6041259765625	7.294575691223145	-1370.585815429688	799.454345703125	26.27156066894531	-1418.903686523438	797.9564819335938	80.33180236816406	-1545.584106445312	1660.886840820312	-125.710578918457	-1385.900634765625	1745.89501953125	-264.4350280761719	-1359.7998046875	1741.76025390625	-168.1935119628906	-1537.847045898438	1680.904296875	-264.6617736816406	-1506.2783203125	995.4596557617188	-384.1597900390625	-1533.734497070312	1012.106811523438	-17.86913871765137	-1434.495727539062	1054.382202148438	-50.01828002929688	-1406.160278320312	1035.840087890625	-331.9027404785156	-1492.259887695312	509.5316467285156	-345.3246765136719	-1486.642700195312	653.9970703125	-375.4193725585938	-1581.818725585938	41.54202651977539	-341.9010314941406	-1545.966674804688	289.5581665039062	-354.9224243164062	-1368.206420898438	46.74910354614258	-284.1169738769531	-1437.145385742188	40.87191009521484	-241.8203125	-1453.561767578125	41.30348968505859	-357.2999267578125	-1644.119873046875	46.61328506469727	-290.2704162597656	-1510.46533203125	518.1634521484375	-64.35427856445312	-1479.579956054688	784.8480224609375	-11.52593803405762	-1583.288818359375	39.08490371704102	-104.5215072631836	-1507.426147460938	403.3499755859375	-84.92543029785156	-1369.860961914062	49.03572845458984	-137.1962585449219	-1422.487060546875	45.73387908935547	-182.1533813476562	-1473.704833984375	39.30624389648438	-72.78224945068359	-1641.652099609375	40.13480758666992	-166.2040557861328	-1413.167846679688	921.0297241210938	15.84643745422363	
67	0.66	-1623.689453125	1053.61181640625	-130.8530426025391	-1613.595336914062	1059.878540039062	-250.8047485351562	-1623.76611328125	1130.890258789062	-207.8835906982422	-1387.879272460938	1324.795654296875	-200.0274505615234	-1640.8505859375	1257.524169921875	-200.2317199707031	-1585.676147460938	1521.1650390625	-202.2843780517578	-1416.664428710938	1441.603515625	-199.595947265625	-1657.451904296875	1381.101318359375	-128.3563232421875	-1603.447998046875	1483.40283203125	-313.7635192871094	-1513.02099609375	1485.6767578125	-367.3553161621094	-1535.89404296875	1367.374267578125	-447.6412658691406	-1508.300903320312	1157.029418945312	-473.5803527832031	-1581.421508789062	1137.484252929688	-430.2076110839844	-1408.726684570312	926.5652465820312	-412.5876770019531	-1430.953002929688	909.1118774414062	-492.5622863769531	-1480.094116210938	1051.060424804688	-485.775390625	-1399.821899414062	728.80859375	-423.1201477050781	-1410.9375	821.1355590820312	-487.8822631835938	-1370.413208007812	826.4719848632812	-433.1842651367188	-1524.76953125	1481.252319335938	-32.36537170410156	-1540.707397460938	1417.120971679688	36.42313766479492	-1549.0146484375	1133.8681640625	72.84699249267578	-1589.828125	1128.043579101562	-13.07515144348145	-1460.177856445312	904.94677734375	84.70459747314453	-1519.23974609375	1065.500122070312	81.63436889648438	-1396.882690429688	726.7171020507812	7.36688756942749	-1370.646484375	799.562255859375	26.35490036010742	-1419.017456054688	797.9833984375	80.42208862304688	-1545.398559570312	1660.970825195312	-125.7378768920898	-1385.452758789062	1745.751342773438	-264.3298645019531	-1359.562866210938	1741.679565429688	-168.1329345703125	-1537.534423828125	1680.897216796875	-264.6861877441406	-1506.020263671875	995.4656372070312	-383.9178466796875	-1533.79833984375	1012.12109375	-17.73991012573242	-1434.613037109375	1054.382934570312	-49.84465026855469	-1406.0087890625	1035.820434570312	-331.6388549804688	-1492.114868164062	509.5262451171875	-345.1758422851562	-1486.519287109375	654.0126953125	-375.2581481933594	-1581.801513671875	41.52704620361328	-341.8947448730469	-1545.843994140625	289.5508422851562	-354.839599609375	-1368.205078125	46.74763870239258	-284.1152954101562	-1437.152099609375	40.85565185546875	-241.8083801269531	-1453.553344726562	41.31183242797852	-357.29052734375	-1644.119018554688	46.61958694458008	-290.2720336914062	-1510.572143554688	518.11083984375	-64.18437194824219	-1479.708862304688	784.890869140625	-11.21664142608643	-1583.293579101562	39.07879257202148	-104.5143203735352	-1507.47119140625	403.3377990722656	-84.81186676025391	-1369.861938476562	49.04099655151367	-137.1925048828125	-1422.511352539062	45.75428771972656	-182.1607360839844	-1473.71142578125	39.29768753051758	-72.77188873291016	-1641.661254882812	40.13072967529297	-166.1966857910156	-1413.22900390625	921.1167602539062	16.01433753967285	
68	0.67	-1623.750854492188	1053.640258789062	-130.7463073730469	-1613.578857421875	1059.896118164062	-250.7020874023438	-1623.720825195312	1130.912841796875	-207.7893676757812	-1387.864501953125	1324.779296875	-199.8146667480469	-1640.776611328125	1257.55419921875	-200.1709594726562	-1585.5283203125	1521.181640625	-202.2882232666016	-1416.544067382812	1441.587280273438	-199.4445953369141	-1657.335571289062	1381.139526367188	-128.3434295654297	-1603.212280273438	1483.377197265625	-313.7203063964844	-1512.766723632812	1485.640625	-367.2717590332031	-1535.567016601562	1367.319091796875	-447.5235290527344	-1507.988647460938	1156.970336914062	-473.4042663574219	-1581.205810546875	1137.455688476562	-430.1011352539062	-1408.672729492188	926.4342651367188	-412.4003295898438	-1430.833129882812	909.0094604492188	-492.3923950195312	-1479.887084960938	1051.001342773438	-485.6159973144531	-1399.589111328125	728.63671875	-422.8660888671875	-1410.897216796875	821.0398559570312	-487.7333068847656	-1370.362915039062	826.2676391601562	-432.990478515625	-1524.758911132812	1481.290283203125	-32.29759979248047	-1540.770263671875	1417.185302734375	36.52463150024414	-1549.17138671875	1133.933349609375	72.91265106201172	-1589.94482421875	1128.112915039062	-12.99760341644287	-1460.348999023438	905.0200805664062	84.86852264404297	-1519.392333984375	1065.566284179688	81.76904296875	-1396.964965820312	726.8276977539062	7.477124691009521	-1370.70361328125	799.6837768554688	26.44846725463867	-1419.156494140625	798.0159912109375	80.53881072998047	-1545.202514648438	1661.06982421875	-125.7512588500977	-1384.984497070312	1745.598754882812	-264.2185668945312	-1359.3349609375	1741.604370117188	-168.0550994873047	-1537.225830078125	1680.901733398438	-264.7136535644531	-1505.785034179688	995.4752807617188	-383.6751098632812	-1533.87841796875	1012.137145996094	-17.59601974487305	-1434.731811523438	1054.37841796875	-49.67219543457031	-1405.86474609375	1035.799560546875	-331.3724365234375	-1491.97607421875	509.5233764648438	-345.024658203125	-1486.392700195312	654.0303955078125	-375.0892333984375	-1581.7890625	41.52238082885742	-341.8901672363281	-1545.724365234375	289.5445556640625	-354.7551574707031	-1368.205200195312	46.74595642089844	-284.112548828125	-1437.159545898438	40.83467483520508	-241.7945404052734	-1453.542602539062	41.3209114074707	-357.2797241210938	-1644.116455078125	46.62373352050781	-290.2729187011719	-1510.694213867188	518.05322265625	-63.99701309204102	-1479.854614257812	784.9439086914062	-10.88964366912842	-1583.299926757812	39.07060623168945	-104.5081100463867	-1507.5244140625	403.3275756835938	-84.69741058349609	-1369.874633789062	49.04622268676758	-137.1913604736328	-1422.535278320312	45.77573776245117	-182.1694793701172	-1473.716796875	39.28847503662109	-72.76213073730469	-1641.671630859375	40.12653732299805	-166.1909790039062	-1413.3271484375	921.177978515625	16.20683288574219	
